<svg preserveAspectRatio="xMidYMid meet" viewBox="0 0 102 22" fill="none" xmlns="http://www.w3.org/2000/svg"><path d="M10.0803 0.000429153C12.0429 0.000429153 13.7709 0.309762 15.2643 0.928429C16.7789 1.52576 18.0909 2.4111 19.2003 3.58443L16.5443 7.13643C15.6269 6.17643 14.6349 5.46176 13.5683 4.99243C12.5229 4.50176 11.3283 4.25643 9.98428 4.25643C9.19495 4.25643 8.55495 4.34176 8.06428 4.51243C7.57361 4.6831 7.22161 4.91776 7.00828 5.21643C6.79495 5.5151 6.68828 5.85643 6.68828 6.24043C6.68828 6.68843 6.89095 7.07243 7.29628 7.39243C7.72295 7.6911 8.40561 7.9471 9.34428 8.16043L12.8963 8.96043C15.0083 9.4511 16.5549 10.1658 17.5363 11.1044C18.5176 12.0431 19.0083 13.2911 19.0083 14.8484C19.0083 16.3418 18.6243 17.6111 17.8563 18.6564C17.0883 19.6804 16.0323 20.4591 14.6883 20.9924C13.3443 21.5044 11.8083 21.7604 10.0803 21.7604C8.67228 21.7604 7.32828 21.6111 6.04828 21.3124C4.76828 20.9924 3.61628 20.5444 2.59228 19.9684C1.56828 19.3924 0.704281 18.7311 0.000281274 17.9844L2.65628 14.3044C3.18961 14.9231 3.84028 15.4778 4.60828 15.9684C5.39761 16.4378 6.25095 16.8111 7.16828 17.0884C8.10695 17.3658 9.05628 17.5044 10.0163 17.5044C10.7629 17.5044 11.3816 17.4298 11.8723 17.2804C12.3843 17.1311 12.7576 16.9071 12.9923 16.6084C13.2269 16.3098 13.3443 15.9578 13.3443 15.5524C13.3443 15.1044 13.1843 14.7311 12.8643 14.4324C12.5443 14.1124 11.9363 13.8458 11.0403 13.6324L7.13628 12.7684C5.94161 12.4911 4.87495 12.1284 3.93628 11.6804C3.01895 11.2111 2.29361 10.5924 1.76028 9.82443C1.22695 9.0351 0.960281 8.05376 0.960281 6.88043C0.960281 5.55776 1.32295 4.38443 2.04828 3.36043C2.77361 2.3151 3.81895 1.49376 5.18428 0.896429C6.54961 0.299096 8.18162 0.000429153 10.0803 0.000429153ZM29.6493 5.12043C31.2706 5.12043 32.6146 5.35509 33.6813 5.82443C34.7693 6.27243 35.6119 6.88043 36.2093 7.64843C36.8279 8.3951 37.2119 9.20576 37.3613 10.0804L32.3373 11.7444C32.1879 10.8271 31.9106 10.1444 31.5053 9.69643C31.1213 9.2271 30.5559 8.99243 29.8093 8.99243C29.1266 8.99243 28.5506 9.15243 28.0813 9.47243C27.6333 9.7711 27.2919 10.2618 27.0573 10.9444C26.8226 11.6058 26.7053 12.4591 26.7053 13.5044C26.7053 14.5498 26.8333 15.4031 27.0893 16.0644C27.3453 16.7044 27.7079 17.1738 28.1773 17.4724C28.6466 17.7498 29.2013 17.8884 29.8413 17.8884C30.3746 17.8884 30.8119 17.7924 31.1533 17.6004C31.5159 17.3871 31.8146 17.0884 32.0493 16.7044C32.2839 16.3204 32.4333 15.8511 32.4973 15.2964L37.3933 16.8644C37.2439 17.8031 36.8386 18.6458 36.1773 19.3924C35.5373 20.1178 34.6839 20.6938 33.6173 21.1204C32.5506 21.5471 31.3026 21.7604 29.8733 21.7604C28.1239 21.7604 26.5986 21.4404 25.2973 20.8004C23.9959 20.1391 22.9933 19.1898 22.2893 17.9524C21.5853 16.6938 21.2333 15.1898 21.2333 13.4404C21.2333 11.6911 21.5853 10.1978 22.2893 8.96043C22.9933 7.70176 23.9746 6.75243 25.2333 6.11243C26.5133 5.45109 27.9853 5.12043 29.6493 5.12043ZM40.2215 21.4404V5.44043H45.0215L45.2455 8.89643C45.6509 7.70176 46.2482 6.77376 47.0375 6.11243C47.8482 5.45109 48.8722 5.12043 50.1095 5.12043C50.5149 5.12043 50.8562 5.15243 51.1335 5.21643C51.4322 5.28043 51.6669 5.36576 51.8375 5.47243L51.2935 9.95243C51.0802 9.8671 50.8029 9.8031 50.4615 9.76043C50.1415 9.69643 49.7469 9.66443 49.2775 9.66443C48.6375 9.66443 48.0402 9.8031 47.4855 10.0804C46.9309 10.3578 46.4829 10.7738 46.1415 11.3284C45.8215 11.8618 45.6615 12.5444 45.6615 13.3764V21.4404H40.2215ZM59.3795 21.7604C58.2915 21.7604 57.3315 21.5791 56.4995 21.2164C55.6889 20.8324 55.0489 20.2244 54.5795 19.3924C54.1102 18.5604 53.8755 17.4724 53.8755 16.1284V5.44043H59.3155V14.8484C59.3155 15.8724 59.5182 16.5871 59.9235 16.9924C60.3289 17.3978 60.9049 17.6004 61.6515 17.6004C62.0355 17.6004 62.3982 17.5364 62.7395 17.4084C63.0809 17.2591 63.3795 17.0458 63.6355 16.7684C63.8915 16.4698 64.0835 16.0964 64.2115 15.6484C64.3609 15.1791 64.4355 14.6351 64.4355 14.0164V5.44043H69.8755V21.4404H65.0115L64.8515 18.4324C64.3395 19.5631 63.6249 20.4058 62.7075 20.9604C61.7902 21.4938 60.6809 21.7604 59.3795 21.7604ZM80.472 0.352428V15.7444C80.472 16.5124 80.6534 17.0671 81.016 17.4084C81.4 17.7284 81.9227 17.8884 82.584 17.8884C83.096 17.8884 83.5334 17.8351 83.896 17.7284C84.28 17.6004 84.6214 17.4191 84.92 17.1844L85.496 20.5444C84.9627 20.9284 84.2907 21.2271 83.48 21.4404C82.6694 21.6538 81.8374 21.7604 80.984 21.7604C79.768 21.7604 78.712 21.5898 77.816 21.2484C76.9414 20.9071 76.2587 20.3631 75.768 19.6164C75.2987 18.8698 75.0534 17.8778 75.032 16.6404V1.85643L80.472 0.352428ZM85.24 5.44043V9.31243H72.28V5.44043H85.24ZM86.9208 21.4404V18.1124L93.2888 10.8804L94.9848 9.18443L92.4568 9.24843H86.9848V5.44043H101.001V8.76843L94.7288 15.9364L92.9688 17.6964L95.7848 17.6324H101.289V21.4404H86.9208Z" fill="url(#paint0_linear_1_2992)"/><defs><linearGradient id="paint0_linear_1_2992" x1="2.51769" y1="-5.55957" x2="95.8225" y2="42.4068" gradientUnits="userSpaceOnUse"><stop stop-color="#247B7B"/><stop offset="1" stop-color="#3B247B"/></linearGradient></defs></svg>