<svg preserveAspectRatio="xMidYMid meet" viewBox="0 0 48 48" fill="none" xmlns="http://www.w3.org/2000/svg"><path d="M24.4196 34.0922V41.3442C24.4196 41.9742 23.9116 42.5002 23.3026 42.5002C23.155 42.4992 23.0091 42.4683 22.8737 42.4096C22.7383 42.3508 22.6161 42.2653 22.5146 42.1582L11.4946 30.8082C9.33558 28.6002 8.14258 25.5782 8.14258 22.4522C8.14258 16.0142 13.1956 10.7852 19.4426 10.7852H31.1996C37.4466 10.7852 42.4996 16.0152 42.4996 22.4522C42.4996 28.8892 37.4466 34.1182 31.1996 34.1182H24.4196V34.0922Z" fill="black" stroke="#3B247B" stroke-linecap="round" stroke-linejoin="round"/><path d="M16.8 29.286C10.553 29.286 5.5 23.956 5.5 17.393C5.5 10.83 10.553 5.5 16.8 5.5H28.557C34.804 5.5 39.857 10.83 39.857 17.393C39.857 23.956 34.804 29.286 28.557 29.286H16.8Z" fill="#247B7B" stroke="black" stroke-linecap="round" stroke-linejoin="round"/><g clip-path="url(#clip0_1_3237)"><path d="M28.0046 14.1157C27.9469 14.0459 27.8745 13.9897 27.7926 13.9511C27.7107 13.9125 27.6212 13.8925 27.5307 13.8925H27.5146H27.5155H25.9384L26.3757 11.7644C26.3974 11.6704 26.3977 11.5726 26.3764 11.4784C26.3552 11.3842 26.3129 11.296 26.2528 11.2204L26.2537 11.2218C26.1958 11.152 26.1233 11.0959 26.0412 11.0574C25.9591 11.0189 25.8696 10.999 25.7789 10.999H25.7638H25.7647C25.3522 11.0123 25.0117 11.3038 24.9237 11.6911L24.9223 11.6971L24.8036 12.2755C24.7999 12.2901 24.7935 12.3039 24.7903 12.3186L24.4658 13.8929H21.8107L22.2479 11.7649C22.2697 11.6708 22.27 11.573 22.2487 11.4788C22.2274 11.3846 22.1852 11.2965 22.1251 11.2209L22.126 11.2222C22.0681 11.1525 21.9955 11.0963 21.9134 11.0578C21.8314 11.0193 21.7418 10.9994 21.6512 10.9995H21.636H21.6369C21.2244 11.0128 20.8839 11.3043 20.7959 11.6916L20.7945 11.6975L20.6708 12.2993C20.6708 12.3062 20.6662 12.3121 20.6648 12.3186L20.3431 13.8929H18.6257C18.2132 13.9062 17.8727 14.1973 17.7842 14.5846L17.7828 14.5905C17.7609 14.6846 17.7605 14.7825 17.7817 14.8768C17.8029 14.9711 17.8451 15.0593 17.9052 15.135L17.9043 15.1336C18.0179 15.2702 18.188 15.3569 18.3787 15.3569H18.3942H18.3933H20.0419L19.5735 17.6348H17.8543C17.4418 17.6481 17.1013 17.9396 17.0128 18.3269L17.0114 18.3328C16.9899 18.4267 16.9897 18.5243 17.0109 18.6183C17.032 18.7123 17.0741 18.8003 17.1338 18.8759L17.1329 18.8746C17.247 19.0111 17.4171 19.0978 17.6077 19.0978H17.6233H17.6224H19.271L18.831 21.2373C18.8092 21.3314 18.809 21.4291 18.8302 21.5233C18.8515 21.6175 18.8938 21.7057 18.9539 21.7813L18.9529 21.7799C19.0671 21.9165 19.2371 22.0031 19.4278 22.0031H19.4429H19.442C19.639 21.9969 19.8284 21.9256 19.9806 21.8004C20.1328 21.6752 20.2393 21.5032 20.2835 21.3111L20.2849 21.3051L20.7386 19.0987H23.3951L22.9551 21.2382C22.9333 21.3323 22.9331 21.4301 22.9543 21.5243C22.9756 21.6185 23.0179 21.7066 23.0779 21.7822L23.077 21.7809C23.1912 21.9174 23.3612 22.0036 23.5519 22.0036H23.567H23.5661C23.763 21.9974 23.9524 21.9262 24.1046 21.8009C24.2567 21.6757 24.3631 21.5036 24.4071 21.3115L24.4085 21.3056L24.8622 19.0991H26.5122C26.7092 19.0929 26.8985 19.0217 27.0507 18.8966C27.203 18.7715 27.3095 18.5995 27.3537 18.4075L27.3551 18.4016C27.3777 18.3076 27.3786 18.2097 27.3577 18.1154C27.3368 18.0211 27.2947 17.9327 27.2346 17.8571L27.2355 17.8584C27.1775 17.7886 27.1049 17.7324 27.0227 17.6938C26.9406 17.6553 26.8509 17.6352 26.7602 17.6352H26.7437H26.7446H25.1647L25.6332 15.3573H27.2832C27.4802 15.3511 27.6696 15.2798 27.8218 15.1546C27.974 15.0294 28.0805 14.8573 28.1247 14.6652L28.126 14.6593C28.1479 14.5651 28.1481 14.4673 28.1269 14.373C28.1056 14.2787 28.0633 14.1904 28.0032 14.1148L28.0041 14.1161L28.0046 14.1157ZM21.042 17.6334L21.5104 15.3555H24.1669L23.6985 17.6334H21.042Z" fill="#3B247B"/></g><defs><clipPath id="clip0_1_3237"><rect width="11" height="11" fill="white" transform="translate(17 11)"/></clipPath></defs></svg>